<svg width="52" height="61" viewBox="0 0 52 61" fill="none" xmlns="http://www.w3.org/2000/svg">
<path d="M50.555 12.3917L38.7903 0.627022C38.4596 0.295981 38.0111 0.109787 37.5432 0.109375H14.0138C12.9217 0.109375 11.8744 0.543198 11.1022 1.31541C10.33 2.08761 9.89614 3.13495 9.89614 4.22702V9.52114H4.60202C3.50995 9.52114 2.46261 9.95496 1.69041 10.7272C0.918197 11.4994 0.484375 12.5467 0.484375 13.6388V55.9917C0.484375 57.0838 0.918197 58.1311 1.69041 58.9033C2.46261 59.6756 3.50995 60.1094 4.60202 60.1094H37.5432C38.6353 60.1094 39.6826 59.6756 40.4548 58.9033C41.227 58.1311 41.6608 57.0838 41.6608 55.9917V50.6976H46.955C48.047 50.6976 49.0944 50.2638 49.8666 49.4916C50.6388 48.7194 51.0726 47.672 51.0726 46.58V13.6388C51.0722 13.1709 50.886 12.7224 50.555 12.3917ZM38.1314 55.9917C38.1314 56.1477 38.0695 56.2974 37.9591 56.4077C37.8488 56.518 37.6992 56.58 37.5432 56.58H4.60202C4.44601 56.58 4.29639 56.518 4.18608 56.4077C4.07576 56.2974 4.01379 56.1477 4.01379 55.9917V13.6388C4.01379 13.4828 4.07576 13.3332 4.18608 13.2228C4.29639 13.1125 4.44601 13.0506 4.60202 13.0506H27.3991L38.1314 23.7829V55.9917ZM47.5432 46.58C47.5432 46.736 47.4812 46.8856 47.3709 46.9959C47.2606 47.1062 47.111 47.1682 46.955 47.1682H41.6608V23.0506C41.6604 22.5827 41.4742 22.1341 41.1432 21.8035L29.3785 10.0388C29.0479 9.70775 28.5993 9.52155 28.1314 9.52114H13.4256V4.22702C13.4256 4.07101 13.4875 3.92139 13.5978 3.81108C13.7082 3.70076 13.8578 3.63879 14.0138 3.63879H36.8108L47.5432 14.3711V46.58ZM29.8961 37.1682C29.8961 37.6362 29.7102 38.0851 29.3793 38.416C29.0483 38.747 28.5995 38.9329 28.1314 38.9329H14.0138C13.5458 38.9329 13.0969 38.747 12.766 38.416C12.435 38.0851 12.2491 37.6362 12.2491 37.1682C12.2491 36.7002 12.435 36.2513 12.766 35.9204C13.0969 35.5894 13.5458 35.4035 14.0138 35.4035H28.1314C28.5995 35.4035 29.0483 35.5894 29.3793 35.9204C29.7102 36.2513 29.8961 36.7002 29.8961 37.1682ZM29.8961 46.58C29.8961 47.048 29.7102 47.4969 29.3793 47.8278C29.0483 48.1587 28.5995 48.3447 28.1314 48.3447H14.0138C13.5458 48.3447 13.0969 48.1587 12.766 47.8278C12.435 47.4969 12.2491 47.048 12.2491 46.58C12.2491 46.1119 12.435 45.6631 12.766 45.3321C13.0969 45.0012 13.5458 44.8153 14.0138 44.8153H28.1314C28.5995 44.8153 29.0483 45.0012 29.3793 45.3321C29.7102 45.6631 29.8961 46.1119 29.8961 46.58Z" fill="url(#paint0_linear_4842_145)"/>
<defs>
<linearGradient id="paint0_linear_4842_145" x1="9.64404" y1="9.13459" x2="58.5852" y2="74.2102" gradientUnits="userSpaceOnUse">
<stop stop-color="#7000FF"/>
<stop offset="1" stop-color="#0469FF"/>
</linearGradient>
</defs>
</svg>
